<?xml version="1.0" encoding="utf-8"?>
<!-- Generator: Adobe Illustrator 23.0.1, SVG Export Plug-In . SVG Version: 6.00 Build 0)  -->
<svg version="1.1" id="Layer_1" xmlns="http://www.w3.org/2000/svg" xmlns:xlink="http://www.w3.org/1999/xlink" x="0px" y="0px"
	 viewBox="0 0 600 600" style="enable-background:new 0 0 600 600;" xml:space="preserve">
<style type="text/css">
	.st0{fill:#5DC9FF;}
	.st1{fill:#91DBFF;}
</style>
<g transform="translate(300,300)">
	<path class="st0" d="M71.6-52.9C50.9-37,24-48-20-16C-61.7,14.3-77.1,43.5-95.1,86.9c-0.3,0.7-0.6,1.4-0.9,2.1
		c-41.5,49.7-69.1,128.4-105,97.9c-51-43.5-67-274.9-6-324.1c73-58.9,174.4,76.8,262,85.1C61-51.5,66.5-51.8,71.6-52.9z"/>
	<path class="st1" d="M208.2,127.6C154,164.9,0.8,51.7-34,51.9c-24.3,0.1-44.5,16-62,37.1c0.3-0.7,0.6-1.4,0.9-2.1
		C-77.1,43.5-61.7,14.3-20-16c44-32,70.9-21,91.6-36.9c71.2-15.3,74-176.8,125.4-127.1C253-126.1,249.8,98.9,208.2,127.6z"/>
</g>
</svg>
